<svg xmlns="http://www.w3.org/2000/svg" viewBox="0 0 256 256">
  <path fill="#000" d="M208.6 112.2c-2.3-1-45.8-22.3-81.3 11.7-7.3-11.7-17-22.7-30-31.7-2-1.3-4-2.7-6-4-18-10.7-38.7-16-54.3-6.3-14.7 9-22.3 27-18.3 46.3 3 14.3 12.3 28 26.3 37.7 7.7 5.3 16.3 8.7 24.7 10.3 1.3.3 2.7.7 4 1 22.7 5.3 46.3-5.3 61-25.3 7.7 12.7 18.3 24.3 32.3 33.3 21.3 13.7 47 18 68.3 6.3 20-11 31-33.3 27-56-2.3-13.7-10.3-26.7-22.3-35.7-7.3-5.3-15.3-8.7-23-10.3-2.7-.7-5.3-1-7.7-1.3zm-81.3 11.7c17.7-16.3 37.3-25.3 54.3-22.3 14.7 2.3 27 11.7 33.3 25 6.3 13.3 5 28-3.7 39.7-8.3 11-22.3 16-36.3 13-14.3-3-27-12.3-36.3-25-9.3-12.7-14.3-28-14.3-42.3 0-5.7 1-11.3 3-15z"/>
</svg>